<?xml version="1.0" standalone="no"?>
<!DOCTYPE svg PUBLIC "-//W3C//DTD SVG 20010904//EN"
 "http://www.w3.org/TR/2001/REC-SVG-20010904/DTD/svg10.dtd">
<svg version="1.0" xmlns="http://www.w3.org/2000/svg"
 width="700.000000pt" height="700.000000pt" viewBox="0 0 700.000000 700.000000"
 preserveAspectRatio="xMidYMid meet">
<metadata>
Created by potrace 1.14, written by Peter Selinger 2001-2017
</metadata>
<g transform="translate(0.000000,700.000000) scale(0.100000,-0.100000)"
fill="#000000" stroke="none">
<path d="M3497 6114 c-1 -1 -29 -4 -62 -7 -99 -9 -177 -45 -440 -202 -137 -82
-259 -155 -270 -161 -17 -9 -216 -128 -485 -288 -30 -18 -233 -139 -450 -269
-416 -248 -460 -280 -531 -390 -40 -62 -77 -161 -86 -230 -3 -23 -6 -496 -6
-1052 0 -1106 -1 -1066 59 -1191 58 -119 131 -186 360 -331 163 -103 335 -213
394 -251 131 -84 209 -134 360 -230 36 -22 70 -46 77 -51 7 -6 14 -11 17 -11
3 0 101 -61 218 -136 117 -76 251 -161 298 -191 47 -30 130 -84 185 -119 189
-121 330 -150 510 -104 86 22 132 46 287 147 56 37 106 69 110 71 4 2 112 71
240 152 128 82 327 209 441 282 115 73 283 181 375 240 92 59 212 135 267 169
55 35 102 66 105 69 3 3 16 11 30 18 106 54 222 172 273 276 62 126 60 81 60
1211 0 945 -2 1035 -18 1095 -41 156 -102 238 -270 366 -18 14 -200 123 -830
496 -121 72 -231 138 -245 147 -14 9 -34 21 -45 27 -11 6 -162 96 -335 199
-330 198 -401 231 -523 244 -37 4 -68 6 -70 5z"/>
</g>
</svg>
